<svg width="86" height="17" viewBox="0 0 86 17" fill="none" xmlns="http://www.w3.org/2000/svg">
<path d="M24.0081 16.5V0.5H26.6125V16.5H24.0081ZM25.7972 16.5V14.2143H30.3494C31.1493 14.2143 31.768 13.9629 32.2065 13.46C32.644 12.9571 32.8632 12.3784 32.8632 11.7229C32.8632 11.2813 32.7645 10.8698 32.5688 10.4886C32.3722 10.1082 32.0851 9.80286 31.7082 9.57429C31.3304 9.34571 30.8775 9.23143 30.3494 9.23143H25.7972V6.94571H29.9643C30.6438 6.94571 31.1873 6.77109 31.595 6.42C32.0026 6.06983 32.2065 5.55143 32.2065 4.86571C32.2065 4.18 32.0026 3.66251 31.595 3.31143C31.1873 2.96126 30.6438 2.78571 29.9643 2.78571H25.7972V0.5H30.0323C31.104 0.5 31.9945 0.6984 32.7047 1.09429C33.414 1.49109 33.9422 2.00126 34.29 2.62571C34.637 3.25109 34.8109 3.92126 34.8109 4.63714C34.8109 5.47554 34.5808 6.21429 34.1206 6.85429C33.6595 7.49429 32.9846 8.01269 32.0932 8.40857L32.297 7.58571C33.2935 7.99714 34.0708 8.5768 34.6297 9.32286C35.1878 10.0698 35.4677 10.9457 35.4677 11.9514C35.4677 12.7743 35.2675 13.5286 34.868 14.2143C34.4676 14.9 33.8787 15.4522 33.1015 15.871C32.3233 16.2906 31.3694 16.5 30.237 16.5H25.7981H25.7972Z" fill="#221F20"/>
<path d="M37.7551 16.5V0.5H40.2464V16.5H37.7551Z" fill="#221F20"/>
<path d="M47.9918 16.7288C46.9346 16.7288 45.9761 16.4737 45.1155 15.9626C44.2549 15.4525 43.5719 14.7631 43.0664 13.8945C42.56 13.0259 42.3073 12.0586 42.3073 10.9917C42.3073 9.92469 42.56 8.9656 43.0664 8.11166C43.5719 7.25863 44.2549 6.57657 45.1155 6.06549C45.9761 5.55532 46.9346 5.29932 47.9918 5.29932C49.049 5.29932 50.03 5.55074 50.8907 6.0536C51.7513 6.55646 52.4343 7.23852 52.9398 8.09977C53.4453 8.96103 53.6989 9.92469 53.6989 10.9907C53.6989 12.0568 53.4462 13.025 52.9398 13.8936C52.4334 14.7622 51.7513 15.4515 50.8907 15.9617C50.03 16.4728 49.0635 16.7279 47.9918 16.7279V16.7288ZM47.9918 14.3059C48.6105 14.3059 49.1586 14.1651 49.6333 13.8835C50.1089 13.6019 50.4785 13.2088 50.743 12.7059C51.0066 12.2031 51.1398 11.6317 51.1398 10.9917C51.1398 10.3517 51.0039 9.78846 50.7321 9.30023C50.4604 8.81292 50.0898 8.428 49.6224 8.1464C49.154 7.8648 48.6105 7.724 47.9918 7.724C47.373 7.724 46.8485 7.8648 46.372 8.1464C45.8964 8.42892 45.5259 8.81292 45.2623 9.30023C44.9978 9.78846 44.8655 10.3517 44.8655 10.9917C44.8655 11.6317 44.9978 12.2031 45.2623 12.7059C45.5259 13.2088 45.8964 13.601 46.372 13.8835C46.8476 14.1661 47.3875 14.3059 47.9918 14.3059Z" fill="#221F20"/>
<path d="M60.7423 16.7288C59.6851 16.7288 58.7267 16.4737 57.8661 15.9626C57.0055 15.4525 56.3224 14.7631 55.8169 13.8945C55.3105 13.0259 55.0578 12.0586 55.0578 10.9917C55.0578 9.92469 55.3105 8.9656 55.8169 8.11166C56.3224 7.25863 57.0055 6.57657 57.8661 6.06549C58.7267 5.55532 59.6851 5.29932 60.7423 5.29932C61.7995 5.29932 62.7806 5.55074 63.6412 6.0536C64.5018 6.55646 65.1849 7.23852 65.6903 8.09977C66.1958 8.96103 66.4495 9.92469 66.4495 10.9907C66.4495 12.0568 66.1967 13.025 65.6903 13.8936C65.184 14.7622 64.5018 15.4515 63.6412 15.9617C62.7806 16.4728 61.814 16.7279 60.7423 16.7279V16.7288ZM60.7423 14.3059C61.3611 14.3059 61.9091 14.1651 62.3838 13.8835C62.8594 13.6019 63.229 13.2088 63.4935 12.7059C63.7572 12.2031 63.8903 11.6317 63.8903 10.9917C63.8903 10.3517 63.7544 9.78846 63.4827 9.30023C63.2109 8.81292 62.8404 8.428 62.3729 8.1464C61.9046 7.8648 61.3611 7.724 60.7423 7.724C60.1236 7.724 59.5991 7.8648 59.1226 8.1464C58.647 8.42892 58.2765 8.81292 58.0128 9.30023C57.7483 9.78846 57.6161 10.3517 57.6161 10.9917C57.6161 11.6317 57.7483 12.2031 58.0128 12.7059C58.2765 13.2088 58.647 13.601 59.1226 13.8835C59.5982 14.1661 60.1381 14.3059 60.7423 14.3059Z" fill="#221F20"/>
<path d="M68.5104 16.4999V5.52844H71.0016V16.4999H68.5104ZM75.735 16.4999V9.96272C75.735 9.2313 75.5085 8.66352 75.0555 8.26032C74.6026 7.85712 74.0436 7.65507 73.3796 7.65507C72.9267 7.65507 72.5226 7.7465 72.1675 7.92935C71.8124 8.11221 71.5298 8.37552 71.3178 8.71747C71.1058 9.06032 71.0007 9.47541 71.0007 9.96272L70.0269 9.41415C70.0269 8.57667 70.2081 7.85255 70.5704 7.24272C70.9328 6.63381 71.4229 6.15655 72.0425 5.81461C72.6612 5.47175 73.3561 5.30078 74.1261 5.30078C74.8961 5.30078 75.59 5.46901 76.2096 5.80364C76.8284 6.13918 77.3194 6.61187 77.6817 7.22078C78.0441 7.83061 78.2253 8.56204 78.2253 9.41507V16.5008H75.7341L75.735 16.4999ZM82.9595 16.4999V9.96272C82.9595 9.2313 82.733 8.66352 82.2801 8.26032C81.8271 7.85712 81.2682 7.65507 80.6042 7.65507C80.1657 7.65507 79.7662 7.7465 79.4039 7.92935C79.0415 8.11221 78.7543 8.37552 78.5432 8.71747C78.3313 9.06032 78.2262 9.47541 78.2262 9.96272L76.822 9.41415C76.8972 8.57667 77.1391 7.85255 77.5468 7.24272C77.9544 6.63381 78.4789 6.15655 79.1212 5.81461C79.7626 5.47175 80.4692 5.30078 81.2392 5.30078C82.0092 5.30078 82.7339 5.46901 83.3681 5.80364C84.0022 6.13918 84.5077 6.61187 84.8855 7.22078C85.2623 7.83061 85.4516 8.56204 85.4516 9.41507V16.5008H82.9604L82.9595 16.4999Z" fill="#221F20"/>
<path d="M12.5792 9.52148C12.5792 9.52788 12.5792 9.53337 12.5792 9.53977C12.5792 10.4577 12.264 11.2184 11.6335 11.82C11.003 12.4198 10.127 12.7215 9.00728 12.7215H0.221863V16.5395H9.42762C11.6688 16.5395 13.5078 15.8849 14.9446 14.5775C16.3795 13.2682 17.0988 11.5905 17.0988 9.53977C17.0988 9.53337 17.0988 9.52788 17.0988 9.52148H12.5802H12.5792Z" fill="#1C2DEF"/>
<path d="M14.1745 0.685547C14.1745 0.691947 14.1745 0.697433 14.1745 0.703833C14.1745 1.62178 13.8593 2.38246 13.2288 2.98406C12.5983 3.58383 11.7222 3.88555 10.6026 3.88555H5.03308V7.7036H11.0229C13.2641 7.7036 15.1031 7.04898 16.5398 5.74155C17.9748 4.43229 18.6941 2.75458 18.6941 0.703833C18.6941 0.697433 18.6941 0.691947 18.6941 0.685547H14.1754H14.1745Z" fill="#1C2DEF"/>
</svg>
